<svg width="58" height="60" viewBox="0 0 58 60" fill="none" xmlns="http://www.w3.org/2000/svg">
<path d="M26.0271 2.95178C26.4961 -0.511415 31.5039 -0.511421 31.9729 2.95177L32.0919 3.83099C32.4638 6.57722 36.0419 7.3939 37.5686 5.081L38.0573 4.34051C39.9825 1.42378 44.4943 3.59653 43.4142 6.92026L43.14 7.76408C42.2836 10.3997 45.153 12.688 47.532 11.2665L48.2936 10.8114C51.2937 9.01885 54.4159 12.934 52.0007 15.46L51.3875 16.1013C49.4723 18.1043 51.0647 21.4109 53.8249 21.1624L54.7085 21.0829C58.1893 20.7695 59.3036 25.6516 56.0316 26.8795L55.2009 27.1913C52.6063 28.1649 52.6063 31.8351 55.2009 32.8087L56.0316 33.1205C59.3036 34.3484 58.1893 39.2305 54.7085 38.9171L53.8249 38.8376C51.0647 38.5891 49.4723 41.8957 51.3875 43.8987L52.0007 44.54C54.4159 47.066 51.2937 50.9812 48.2936 49.1886L47.532 48.7335C45.153 47.312 42.2836 49.6003 43.14 52.2359L43.4142 53.0797C44.4943 56.4035 39.9825 58.5762 38.0573 55.6595L37.5686 54.919C36.0419 52.6061 32.4638 53.4228 32.0919 56.169L31.9729 57.0482C31.5039 60.5114 26.4961 60.5114 26.0271 57.0482L25.9081 56.169C25.5362 53.4228 21.9581 52.6061 20.4314 54.919L19.9427 55.6595C18.0175 58.5762 13.5057 56.4035 14.5858 53.0797L14.86 52.2359C15.7164 49.6003 12.847 47.312 10.468 48.7335L9.7064 49.1886C6.70634 50.9811 3.58409 47.066 5.99929 44.54L6.61246 43.8987C8.52766 41.8957 6.93527 38.5891 4.17513 38.8376L3.29146 38.9171C-0.189268 39.2305 -1.3036 34.3484 1.9684 33.1205L2.79908 32.8087C5.3937 31.8351 5.39371 28.1649 2.79909 27.1913L1.96841 26.8795C-1.30359 25.6516 -0.189276 20.7695 3.29145 21.0829L4.17513 21.1624C6.93526 21.4109 8.52767 18.1043 6.61246 16.1013L5.9993 15.46C3.58409 12.934 6.70634 9.01885 9.70639 10.8114L10.468 11.2665C12.847 12.688 15.7164 10.3997 14.86 7.76409L14.5858 6.92026C13.5057 3.59654 18.0175 1.42377 19.9427 4.3405L20.4314 5.081C21.9581 7.3939 25.5362 6.57723 25.9081 3.831L26.0271 2.95178Z" fill="white"/>
</svg>
