<svg width="82" height="84" viewBox="0 0 82 84" fill="none" xmlns="http://www.w3.org/2000/svg">
<g filter="url(#filter0_d_3_13)">
<path d="M38.1468 2.78115C39.0449 0.0172219 42.9551 0.01722 43.8532 2.78115L51.3276 25.7852C51.7293 27.0213 52.8811 27.8582 54.1808 27.8582L78.3687 27.8582C81.2749 27.8582 82.4832 31.577 80.1321 33.2852L60.5636 47.5025C59.5122 48.2664 59.0722 49.6205 59.4738 50.8566L66.9483 73.8607C67.8464 76.6246 64.6829 78.923 62.3318 77.2148L42.7634 62.9975C41.7119 62.2336 40.2881 62.2336 39.2366 62.9975L19.6682 77.2148C17.3171 78.923 14.1536 76.6246 15.0517 73.8607L22.5262 50.8566C22.9278 49.6205 22.4878 48.2664 21.4364 47.5025L1.86793 33.2852C-0.483214 31.577 0.725111 27.8582 3.63128 27.8582L27.8192 27.8582C29.1189 27.8582 30.2707 27.0213 30.6724 25.7852L38.1468 2.78115Z" fill="white"/>
</g>
<defs>
<filter id="filter0_d_3_13" x="0.625519" y="0.708206" width="80.749" height="83.0931" filterUnits="userSpaceOnUse" color-interpolation-filters="sRGB">
<feFlood flood-opacity="0" result="BackgroundImageFix"/>
<feColorMatrix in="SourceAlpha" type="matrix" values="0 0 0 0 0 0 0 0 0 0 0 0 0 0 0 0 0 0 127 0" result="hardAlpha"/>
<feOffset dy="6"/>
<feComposite in2="hardAlpha" operator="out"/>
<feColorMatrix type="matrix" values="0 0 0 0 0 0 0 0 0 0 0 0 0 0 0 0 0 0 0.25 0"/>
<feBlend mode="normal" in2="BackgroundImageFix" result="effect1_dropShadow_3_13"/>
<feBlend mode="normal" in="SourceGraphic" in2="effect1_dropShadow_3_13" result="shape"/>
</filter>
</defs>
</svg>
